<?xml version="1.0" standalone="no"?><!DOCTYPE svg PUBLIC "-//W3C//DTD SVG 1.1//EN" "http://www.w3.org/Graphics/SVG/1.1/DTD/svg11.dtd"><svg class="icon" width="200px" height="200.00px" viewBox="0 0 1024 1024" version="1.1" xmlns="http://www.w3.org/2000/svg"><path fill="#bf1316" d="M0 24.78064m159.875098 0l119.906323 0q159.875098 0 159.875097 159.875098l0 119.906323q0 159.875098-159.875097 159.875097l-119.906323 0q-159.875098 0-159.875098-159.875097l0-119.906323q0-159.875098 159.875098-159.875098ZM469.025462 244.202547m113.048765-113.048765l84.786575-84.786574q113.048766-113.048766 226.097531 0l84.786574 84.786574q113.048766 113.048766 0 226.097531l-84.786574 84.786574q-113.048766 113.048766-226.097531 0l-84.786575-84.786574q-113.048766-113.048766 0-226.097531ZM0 584.343482m159.875098 0l119.906323 0q159.875098 0 159.875097 159.875097l0 119.906323q0 159.875098-159.875097 159.875098l-119.906323 0q-159.875098 0-159.875098-159.875098l0-119.906323q0-159.875098 159.875098-159.875097ZM559.562842 584.343482m159.875097 0l119.906323 0q159.875098 0 159.875098 159.875097l0 119.906323q0 159.875098-159.875098 159.875098l-119.906323 0q-159.875098 0-159.875097-159.875098l0-119.906323q0-159.875098 159.875097-159.875097Z" /></svg>