<?xml version="1.0" standalone="no"?><!DOCTYPE svg PUBLIC "-//W3C//DTD SVG 1.1//EN" "http://www.w3.org/Graphics/SVG/1.1/DTD/svg11.dtd"><svg class="icon" width="200px" height="174.60px" viewBox="0 0 1173 1024" version="1.1" xmlns="http://www.w3.org/2000/svg"><path fill="#d43030" d="M1142.672278 273.252503h-109.667783a29.746011 29.746011 0 0 0-14.414528 3.924566l-49.442198-150.41725c-15.881656-85.533535-75.483712-126.759819-148.766731-126.759819H355.851783c-84.139764 0-135.23248 55.384064-148.766732 126.686462L157.496141 277.617207a29.929402 29.929402 0 0 0-15.221449-4.364704H32.533553a30.699644 30.699644 0 0 0-30.552931 30.846356v26.775078c0 17.018679 13.717642 30.846356 30.552931 30.846356l41.556387 7.152247c-13.130791 25.894801-20.613142 55.494099-20.613141 89.934917l-15.331483 177.449075c0 5.208303 0.366782 10.379927 0.990311 15.734943-0.623529 3.301037-0.953633 6.67543-0.990311 9.976467v213.430378c0 30.36954 24.464352 55.017282 54.503788 55.017283h83.259487c30.076114 0 54.46711-24.647743 54.46711-55.017283v-68.588212h356.548668S542.837187 591.289074 766.574135 468.050361c210.129341-97.197199 361.316833 50.139083 361.316833 50.139083l-5.208302-59.381987c0-34.550853-7.445672-64.150151-20.613142-90.154986l40.602754-6.968856a30.662965 30.662965 0 0 0 30.516253-30.809678v-26.775078a30.699644 30.699644 0 0 0-30.516253-30.846356zM243.763239 241.635905l36.311407-97.563981 0.513494-2.310726c3.631141-19.732865 11.700342-23.217293 23.620754-38.47542h568.548597c12.030446 15.698265 19.549474 19.659509 22.850511 38.255351l36.898257 100.094776 13.460895 54.357075c-3.007611 39.795834-50.359153 71.192363-89.788205 71.192363H320.090549c-39.429052 0-86.780594-31.396529-89.861561-71.192363l13.534251-54.357075z m25.454663 463.979081a82.929384 82.929384 0 0 1-82.525924-83.296165 82.892706 82.892706 0 0 1 82.525924-83.332844 82.892706 82.892706 0 0 1 82.525924 83.332844 82.892706 82.892706 0 0 1-82.525924 83.296165z m327.756291-36.678188h-122.835253a24.647743 24.647743 0 0 1-24.537708-24.794455v-69.65188c0-13.644286 11.003456-24.757777 24.537708-24.757777h187.352186s-21.640131 25.344628-38.035281 55.347386c-14.744632 25.748088-26.481652 63.856726-26.481652 63.856726z"  /><path fill="#d43030" d="M910.059208 497.723015a263.129323 263.129323 0 1 0 0 526.258646 263.129323 263.129323 0 0 0 0-526.258646z m0 465.629601a202.500278 202.500278 0 1 1 0-405.000556 202.500278 202.500278 0 0 1 0 405.000556z"  /><path fill="#d43030" d="M908.775471 604.346509a71.852571 71.852571 0 0 1 30.149471 6.968855c4.291348 1.943944 8.399305 4.364704 12.177159 7.225603 3.080968 2.274048 5.831832 5.024912 8.252592 8.10588 4.65813 6.088579 8.179236 13.020757 10.379927 20.393073 2.0173 6.968856 3.594462 14.084424 4.584774 21.236671 0.916955 7.775776 1.430449 15.624908 1.430449 23.437362a11.113491 11.113491 0 0 1 3.007612 3.814532 23.29065 23.29065 0 0 1 1.870587 13.057435 30.589609 30.589609 0 0 1-2.274047 9.683041 19.769543 19.769543 0 0 1-3.997923 5.648441 13.864355 13.864355 0 0 1-5.171624 3.154325l-2.64083 9.242903a94.73976 94.73976 0 0 1-3.154324 7.372316 18.962623 18.962623 0 0 1-3.961244 5.611763 176.165338 176.165338 0 0 0-8.399306 7.372316 18.339094 18.339094 0 0 0-4.364704 10.269892 35.101026 35.101026 0 0 0-0.586851 8.802766 26.408296 26.408296 0 0 0 8.50934 17.385461c3.557784 3.080968 7.592385 5.501728 11.957089 7.225603a124.70584 124.70584 0 0 0 14.817988 5.244981c5.318337 1.503806 10.453284 3.301037 15.624908 5.318337 4.804843 1.943944 9.31626 4.438061 13.460895 7.592385a24.721099 24.721099 0 0 1 8.399306 12.250515c0.990311 3.777853 1.650518 7.519029 2.0173 11.443595 0.513495 4.511417 0.733564 9.096191 0.733564 13.75432 0 4.364704-0.366782 8.692731-0.990311 12.984079a26.224905 26.224905 0 0 1-2.787543 9.242903 14.964701 14.964701 0 0 1-7.812454 3.997923 153.424862 153.424862 0 0 1-15.698264 3.924566c-6.382005 1.21038-13.277504 2.310726-21.089959 3.337715a720.359618 720.359618 0 0 1-45.701022 4.034601 315.799201 315.799201 0 0 1-37.008292 0 698.05928 698.05928 0 0 1-21.640131-1.577162c-7.372316-0.733564-14.78131-1.430449-22.153626-2.310726a471.938249 471.938249 0 0 1-20.099647-2.750864 247.651127 247.651127 0 0 1-15.258127-2.860899 20.833211 20.833211 0 0 1-7.812454-2.934255 25.674732 25.674732 0 0 1-4.217991-14.157781 116.123144 116.123144 0 0 1 1.21038-30.662965 24.794455 24.794455 0 0 1 8.032523-16.358472 53.550155 53.550155 0 0 1 15.514874-8.876122c6.051901-2.274048 12.177159-4.217992 18.375772-5.941866 6.015223-1.577162 11.663664-4.071279 16.835288-7.519029a39.979225 39.979225 0 0 0 8.729409-7.188925 23.657431 23.657431 0 0 0 4.291348-6.895499 16.871967 16.871967 0 0 0 1.43045-7.225603c0-2.494117-0.073356-5.355015-0.293426-8.399305a15.99169 15.99169 0 0 0-4.364704-10.489962 158.999946 158.999946 0 0 0-8.435984-8.032523 19.072658 19.072658 0 0 1-3.814531-5.575085l-3.007612-7.372316c-0.916955-3.080968-1.870588-6.161936-2.640829-9.242903a11.847055 11.847055 0 0 1-3.814532-2.127335 24.757777 24.757777 0 0 1-3.63114-3.961244 25.344628 25.344628 0 0 1-3.227681-7.519029 20.466429 20.466429 0 0 1-1.21038-8.9128 28.792378 28.792378 0 0 1 1.430449-6.895499 18.045669 18.045669 0 0 1 3.631141-6.088579 147.152891 147.152891 0 0 1 4.914877-41.996526 63.453266 63.453266 0 0 1 8.582696-19.072658 50.982682 50.982682 0 0 1 11.553629-13.16747 59.051883 59.051883 0 0 1 12.984079-7.959166 70.165374 70.165374 0 0 1 26.371617-5.06159z"  /></svg>