<?xml version="1.0" standalone="no"?><!DOCTYPE svg PUBLIC "-//W3C//DTD SVG 1.1//EN" "http://www.w3.org/Graphics/SVG/1.1/DTD/svg11.dtd"><svg class="icon" width="200px" height="164.76px" viewBox="0 0 1243 1024" version="1.1" xmlns="http://www.w3.org/2000/svg"><path fill="#2a82e4" d="M283.733333 0c106.666667 0 192 85.333333 192 192s-85.333333 192-192 192-192-85.333333-192-192 83.2-192 192-192z m96 174.933333V102.4l-123.733333 106.666667-68.266667-55.466667v72.533333l68.266667 61.866667c-2.133333 0 123.733333-113.066667 123.733333-113.066667z m763.733334 475.733334H904.533333c-6.4 0-10.666667 0-17.066666-6.4-6.4-6.4-6.4-10.666667-6.4-10.666667V418.133333c0-10.666667 6.4-17.066667 10.666666-23.466666 6.4-6.4 17.066667-10.666667 27.733334-10.666667h57.6c17.066667 0 34.133333 6.4 51.2 10.666667 17.066667 6.4 34.133333 17.066667 51.2 34.133333 23.466667 23.466667 40.533333 57.6 51.2 89.6 10.666667 34.133333 17.066667 72.533333 27.733333 113.066667v10.666666c-4.266667 2.133333-10.666667 8.533333-14.933333 8.533334z m89.6 10.666666c-6.4-44.8-17.066667-89.6-27.733334-136.533333-17.066667-44.8-40.533333-89.6-68.266666-130.133333-17.066667-23.466667-34.133333-40.533333-61.866667-57.6-23.466667-17.066667-51.2-27.733333-78.933333-40.533334s-57.6-17.066667-85.333334-23.466666c-27.733333-6.4-57.6-6.4-78.933333-6.4-10.666667 0-17.066667 6.4-23.466667 17.066666-6.4 10.666667-10.666667 23.466667-10.666666 27.733334v565.333333c0 10.666667 6.4 27.733333 17.066666 34.133333 10.666667 10.666667 23.466667 17.066667 34.133334 17.066667h23.466666c0-17.066667 6.4-40.533333 10.666667-57.6 6.4-17.066667 17.066667-34.133333 27.733333-44.8s27.733333-23.466667 44.8-34.133333c17.066667-6.4 34.133333-10.666667 57.6-10.666667s40.533333 0 57.6 6.4 34.133333 10.666667 44.8 27.733333c10.666667 10.666667 23.466667 27.733333 34.133334 44.8 6.4 17.066667 10.666667 40.533333 10.666666 68.266667h44.8c6.4 0 6.4 0 10.666667-6.4 0-6.4 6.4-10.666667 6.4-17.066667 0-6.4 6.4-10.666667 6.4-23.466666V768c14.933333-14.933333 10.666667-61.866667 4.266667-106.666667zM1024 870.4c23.466667 0 40.533333 6.4 51.2 23.466667 17.066667 17.066667 23.466667 34.133333 23.466667 51.2 0 23.466667-6.4 40.533333-23.466667 57.6-17.066667 14.933333-34.133333 21.333333-51.2 21.333333-23.466667 0-40.533333-6.4-51.2-23.466667-17.066667-17.066667-23.466667-34.133333-23.466667-57.6s6.4-40.533333 23.466667-51.2c17.066667-14.933333 34.133333-21.333333 51.2-21.333333z m-804.266667-4.266667c-23.466667 0-40.533333 6.4-51.2 23.466667-17.066667 17.066667-23.466667 34.133333-23.466666 57.6s6.4 40.533333 23.466666 51.2c10.666667 17.066667 27.733333 23.466667 51.2 23.466667s40.533333-6.4 51.2-23.466667c17.066667-17.066667 23.466667-34.133333 23.466667-51.2 0-23.466667-6.4-40.533333-23.466667-57.6-10.666667-12.8-27.733333-23.466667-51.2-23.466667zM520.533333 130.133333c6.4 23.466667 10.666667 40.533333 10.666667 61.866667 0 34.133333-6.4 68.266667-17.066667 96-10.666667 27.733333-27.733333 57.6-51.2 78.933333-27.733333 27.733333-57.6 44.8-85.333333 57.6-34.133333 10.666667-61.866667 17.066667-96 17.066667s-68.266667-6.4-96-17.066667-55.466667-27.733333-78.933333-51.2-40.533333-51.2-51.2-78.933333c-10.666667-27.733333-17.066667-61.866667-17.066667-96v-10.666667c-10.666667 10.666667-23.466667 27.733333-27.733333 44.8S0 266.666667 0 288v610.133333c0 17.066667 6.4 27.733333 10.666667 34.133334 10.666667 6.4 17.066667 10.666667 34.133333 10.666666h27.733333c0-51.2 10.666667-85.333333 40.533334-113.066666 23.466667-27.733333 61.866667-40.533333 106.666666-40.533334 51.2 0 85.333333 10.666667 106.666667 40.533334 23.466667 27.733333 34.133333 61.866667 34.133333 106.666666H682.666667c10.666667 0 23.466667-6.4 34.133333-10.666666 10.666667-10.666667 10.666667-17.066667 10.666667-34.133334V130.133333h-206.933334z"  /></svg>