<?xml version="1.0" standalone="no"?><!DOCTYPE svg PUBLIC "-//W3C//DTD SVG 1.1//EN" "http://www.w3.org/Graphics/SVG/1.1/DTD/svg11.dtd"><svg class="icon" width="200px" height="200.00px" viewBox="0 0 1024 1024" version="1.1" xmlns="http://www.w3.org/2000/svg"><path fill="#ff552f" d="M729.052 924.716l-54.39 55.057-190.25-192.642 54.352-55.018L674.66 869.698l271.835-275.17 54.39 55.018-271.834 275.17z m-182.087-294.4h25.116v-39.242H179.653v39.243h350.909L414.246 748.084H179.653v39.204h196.175L609.636 1024H61.925c-21.662 0-39.243-17.58-39.243-39.243V118.945c0-21.662 17.581-39.243 39.243-39.243h117.728v39.243c0 21.701 17.581 39.242 39.243 39.242h313.942c21.662 0 39.243-17.541 39.243-39.242V79.702h117.728c21.662 0 39.243 17.58 39.243 39.243v585.62l-54.39 55.057-127.697-129.305z m25.116-354.4H179.653v39.242h392.428v-39.242z m0 156.97H179.653v39.243h392.428v-39.242z m-78.486-313.941H258.14c-21.662 0-39.243-17.542-39.243-39.243v-40.46C218.896 17.582 236.476 0 258.139 0h235.456c21.662 0 39.243 17.58 39.243 39.243v40.459c0 21.701-17.58 39.243-39.243 39.243z" /></svg>